<svg viewBox="0 0 287 43" xmlns="http://www.w3.org/2000/svg">
<path d="M232.853 8.73304C232.783 9.15304 229.613 27.593 229.573 27.883H223.643C223.723 27.463 226.633 11.613 226.633 11.613H226.423C226.423 11.613 220.663 26.533 220.153 27.883H214.283C214.283 27.543 213.743 11.613 213.743 11.613H213.533C213.533 11.613 210.853 27.593 210.803 27.883H204.893C204.973 27.463 208.373 9.02304 208.423 8.73304H218.283C218.283 9.09304 218.573 19.823 218.573 19.823H218.793C218.793 19.823 222.603 9.83304 223.003 8.73304H232.873H232.853ZM136.803 11.603H136.583C136.583 11.603 134.073 18.463 133.523 19.953L133.433 20.193H136.833V20.013C136.833 17.303 136.803 11.593 136.803 11.593V11.603ZM142.363 8.73304C142.373 9.07304 143.153 27.523 143.163 27.883H136.823C136.823 27.543 136.823 23.763 136.823 23.763H132.083C132.083 23.763 130.633 27.653 130.543 27.883H124.433C124.623 27.403 132.073 8.95304 132.163 8.73304H142.363ZM280.863 8.73304C282.123 8.76304 283.593 8.78304 284.673 9.27304C286.073 9.89304 286.803 10.953 286.923 12.553C286.923 12.663 286.933 12.783 286.933 12.913C286.933 14.673 286.033 16.393 284.623 17.253C283.703 17.853 282.453 17.973 281.673 18.073V18.433L281.763 18.443C282.133 18.513 282.473 18.583 282.903 18.893C283.953 19.583 284.733 20.573 284.863 22.313C284.863 22.313 284.913 23.463 284.913 23.483V25.503L284.933 26.403C284.983 27.233 285.113 27.603 285.303 27.873H278.583C278.413 27.723 278.183 27.473 278.123 26.703V26.493C278.123 26.263 278.123 25.833 278.143 25.123L278.173 23.883C278.173 23.673 278.173 23.423 278.173 23.173C278.173 22.773 278.163 22.343 278.123 21.883C278.093 21.563 278.053 21.143 277.833 20.823C277.353 19.943 276.543 19.943 276.153 19.943H275.603C275.603 19.943 274.263 27.583 274.213 27.873H267.893C267.963 27.453 271.263 9.02304 271.313 8.72304H280.873L280.863 8.73304ZM277.083 11.603L276.113 17.133H277.063C277.783 17.133 278.593 17.083 279.213 16.473C279.893 15.803 280.173 14.243 280.113 13.383C280.003 11.683 278.733 11.643 278.053 11.613H277.093L277.083 11.603ZM266.903 8.73304C266.843 9.11304 266.273 12.223 266.223 12.493H260.113L259.483 16.083H265.063C265.003 16.453 264.443 19.583 264.403 19.833H258.803L258.033 24.113H264.523C264.453 24.483 263.893 27.613 263.843 27.873H251.073C251.143 27.453 254.433 9.02304 254.483 8.72304H266.893L266.903 8.73304ZM250.093 8.73304C250.023 9.11304 249.463 12.223 249.413 12.493H243.283L242.653 16.083H248.243C248.173 16.453 247.623 19.583 247.583 19.833H241.973L241.203 24.113H247.703C247.643 24.483 247.093 27.613 247.043 27.873H234.253C234.323 27.453 237.603 9.02304 237.663 8.72304H250.103L250.093 8.73304ZM197.663 8.73304C198.923 8.76304 200.113 8.78304 201.193 9.27304C202.603 9.89304 203.333 10.953 203.443 12.553C203.443 12.663 203.453 12.783 203.453 12.913C203.453 14.673 202.553 16.383 201.143 17.253C200.223 17.853 199.263 17.973 198.483 18.073V18.433L198.573 18.453C198.943 18.523 199.283 18.593 199.743 18.903C200.783 19.593 201.263 20.583 201.383 22.323C201.383 22.323 201.433 23.473 201.433 23.493V25.513L201.453 26.443C201.503 27.253 201.633 27.623 201.823 27.893H195.393C195.223 27.743 194.983 27.493 194.933 26.723V26.513C194.933 26.283 194.933 25.853 194.953 25.143L194.973 23.903C194.973 23.673 194.973 23.423 194.973 23.173C194.973 22.773 194.973 22.353 194.933 21.903C194.913 21.583 194.863 21.163 194.663 20.853C194.183 19.973 193.373 19.973 192.973 19.973H192.433C192.433 19.973 191.083 27.613 191.023 27.903H184.723C184.793 27.483 188.063 9.05304 188.113 8.75304H197.653L197.663 8.73304ZM193.913 11.603L192.943 17.133H193.903C194.613 17.133 195.403 17.083 196.023 16.473C196.703 15.803 196.983 14.243 196.923 13.383C196.813 11.683 195.533 11.643 194.863 11.613H193.913V11.603ZM183.853 8.73304C183.793 9.11304 183.223 12.223 183.173 12.493H177.053L176.433 16.083H182.013C181.953 16.453 181.383 19.583 181.333 19.833H175.733L174.963 24.113H181.453C181.383 24.483 180.823 27.613 180.773 27.873H167.983C168.053 27.453 171.333 9.02304 171.383 8.72304H183.833L183.853 8.73304ZM168.223 8.73304C168.053 9.20304 161.573 27.643 161.483 27.883H151.343C151.343 27.543 150.823 9.09304 150.813 8.73304H157.153C157.103 10.413 156.813 23.883 156.813 23.883H157.033C157.033 23.883 161.533 9.96304 161.923 8.73304H168.223ZM119.223 8.73304C120.473 8.76304 121.653 8.78304 122.733 9.27304C124.123 9.89304 124.853 10.953 124.963 12.553C124.963 12.663 124.973 12.783 124.973 12.913C124.973 14.673 124.083 16.393 122.673 17.253C121.753 17.853 120.793 17.973 120.013 18.073V18.433L120.103 18.453C120.463 18.523 120.803 18.593 121.253 18.903C122.303 19.583 122.773 20.583 122.893 22.323C122.893 22.323 122.943 23.473 122.943 23.493V25.513L122.963 26.433C123.013 27.253 123.133 27.623 123.323 27.893H116.913C116.743 27.743 116.513 27.493 116.453 26.723V26.523C116.453 26.253 116.453 25.783 116.483 25.143V23.903C116.503 23.673 116.513 23.433 116.513 23.183C116.513 22.783 116.503 22.343 116.473 21.903C116.443 21.583 116.393 21.163 116.183 20.843C115.703 19.963 114.903 19.963 114.513 19.963H113.953C113.953 19.963 112.613 27.603 112.563 27.893H106.243C106.313 27.473 109.593 9.04303 109.643 8.74303H119.203L119.223 8.73304ZM115.443 11.603L114.483 17.133H115.423C115.943 17.133 116.893 17.133 117.563 16.473C118.243 15.803 118.533 14.243 118.463 13.383C118.353 11.683 117.083 11.643 116.403 11.613H115.443V11.603ZM76.2634 8.73304C78.4534 8.79304 79.7734 8.85304 80.9634 9.38304C83.3434 10.473 83.7834 12.643 83.9034 14.393C83.9134 14.663 83.9334 14.953 83.9334 15.253C83.9334 17.313 83.5234 20.023 82.8734 22.083C82.0434 24.683 80.7534 27.163 76.9634 27.743C76.1634 27.873 75.3134 27.873 74.4934 27.873H64.8234C64.8934 27.453 68.1434 9.02304 68.1934 8.72304H76.2734L76.2634 8.73304ZM74.1034 11.643L71.7334 25.003H72.5534C73.3534 24.973 74.1334 24.943 74.7734 24.603C76.5334 23.633 77.1434 20.073 77.3434 18.893V18.833C77.5034 17.913 77.6534 16.933 77.7434 15.973V15.883C77.8134 15.243 77.8634 14.633 77.8134 13.963C77.6634 11.693 76.2234 11.663 74.9634 11.643H74.1034ZM105.313 8.73304C105.243 9.15304 103.213 20.593 103.213 20.593C102.873 22.433 102.493 24.523 101.433 25.883C99.4934 28.373 95.7634 28.373 94.5534 28.373C92.1434 28.373 90.4034 28.033 89.0634 27.313C87.4634 26.413 86.6934 25.173 86.5534 23.283C86.5534 23.113 86.5434 22.943 86.5434 22.783C86.5434 21.963 86.6734 21.163 86.7934 20.383L86.8334 20.123C86.8334 20.123 88.6134 10.063 88.8434 8.73304H95.2934C95.2234 9.15304 93.1134 21.183 93.1134 21.183L93.1034 21.303C92.9134 22.413 92.8434 22.923 92.8434 23.253C92.8434 23.433 92.8634 23.563 92.9034 23.713C93.0734 24.373 93.5734 24.763 94.2534 24.763C95.2434 24.763 95.7834 24.103 95.9234 23.913C96.3634 23.353 96.5034 22.553 96.7334 21.243C96.7334 21.243 98.6734 10.143 98.9234 8.73304H105.313Z" fill="currentColor"/>
<path d="M26.2033 0.713036C21.6233 0.513039 16.9833 0.813042 12.3433 1.52304L11.5133 2.35304C13.3933 2.26304 15.2533 2.26305 17.1133 2.34304C33.2933 3.02304 45.2733 9.79304 51.2233 19.973L57.6433 13.553C50.7533 6.07304 39.9333 1.29304 26.2033 0.713036Z" fill="currentColor"/>
<path d="M9.76328 4.10304L7.23328 6.63305C24.0733 10.093 34.4733 21.733 34.6233 36.5831L43.5833 27.623C39.9033 14.613 27.6733 5.39304 9.76328 4.10304Z" fill="currentColor"/>
<path d="M0.333374 13.553L3.89337 9.98305C16.1534 14.553 23.3434 24.413 23.3734 36.593L0.333374 13.553Z" fill="currentColor"/>
</svg>
