<?xml version="1.0" encoding="UTF-8"?>
<svg id="Layer_1" data-name="Layer 1" xmlns="http://www.w3.org/2000/svg" width="380.05" height="61.24" xmlns:xlink="http://www.w3.org/1999/xlink" viewBox="0 0 380.05 61.24">
  <defs>
    <style>
      .cls-1 {
        fill: none;
      }

      .cls-1, .cls-2, .cls-3 {
        stroke-width: 0px;
      }

      .cls-4 {
        clip-path: url(#clippath-1);
      }

      .cls-2 {
        fill: #0b44a4;
      }

      .cls-5 {
        clip-path: url(#clippath);
      }

      .cls-3 {
        fill: #0e223b;
      }
    </style>
    <clipPath id="clippath">
      <rect class="cls-1" x="0" y="0" width="380.05" height="61.24"/>
    </clipPath>
    <clipPath id="clippath-1">
      <rect class="cls-1" x="0" y="0" width="380.05" height="61.24"/>
    </clipPath>
  </defs>
  <g id="Group_138" data-name="Group 138">
    <g class="cls-5">
      <g id="Group_117" data-name="Group 117">
        <g id="Group_106" data-name="Group 106">
          <path id="Path_65" data-name="Path 65" class="cls-2" d="M89.53,60.88c-1.1,0-1.85-.07-2.55-.05v-11.26c.87,0,2.02-.05,3.08-.05,3.73,0,5.83,1.82,5.83,5.6,0,3.87-2.67,5.76-6.37,5.76M89.93,50.25c-.68,0-1.55.03-2.05.05v9.74c.6.07,1.2.11,1.8.12,3.13,0,5.28-1.53,5.28-4.97s-1.78-4.93-5.03-4.93"/>
        </g>
        <g id="Group_107" data-name="Group 107">
          <path id="Path_66" data-name="Path 66" class="cls-2" d="M104.25,56.26h-5.7c-.12,2.8.95,3.92,2.93,3.92.8,0,1.6-.16,2.33-.48l.2.77c-.87.34-1.8.51-2.73.5-2.4,0-3.68-1.35-3.68-4.25,0-2.47,1.32-4.3,3.53-4.3,1.63-.1,3.04,1.14,3.14,2.78.01.17,0,.34-.01.51,0,.1,0,.28-.02.57M101.06,53.13c-1.33.04-2.4,1.11-2.45,2.43h4.69c.15-1.18-.68-2.27-1.87-2.42-.12-.02-.24-.02-.37-.02"/>
        </g>
        <g id="Group_108" data-name="Group 108">
          <path id="Path_67" data-name="Path 67" class="cls-2" d="M115.9,60.83v-5.38c0-1.47-.4-2.32-1.78-2.32-1.65,0-2.78,1.57-2.78,3.75v3.95h-.88v-8.28h.92c0,.67-.05,1.34-.15,2l.03.02c.42-1.31,1.66-2.19,3.03-2.15,1.92,0,2.5,1.18,2.5,2.67v5.75h-.88Z"/>
        </g>
        <g id="Group_109" data-name="Group 109">
          <path id="Path_68" data-name="Path 68" class="cls-2" d="M120.57,50.49c-.36,0-.66-.29-.67-.65,0,0,0-.01,0-.02,0-.37.3-.67.67-.67.36,0,.66.29.67.65,0,0,0,.01,0,.02,0,.37-.3.66-.67.67M120.12,52.55h.88v8.28h-.88v-8.28Z"/>
        </g>
        <g id="Group_110" data-name="Group 110">
          <path id="Path_69" data-name="Path 69" class="cls-2" d="M130.12,56.26h-5.7c-.12,2.8.95,3.92,2.93,3.92.8,0,1.6-.16,2.33-.48l.2.77c-.87.34-1.8.51-2.73.5-2.4,0-3.68-1.35-3.68-4.25,0-2.47,1.32-4.3,3.53-4.3,1.63-.1,3.04,1.14,3.14,2.78.01.17,0,.34-.01.51,0,.1,0,.28-.02.57M126.93,53.13c-1.33.04-2.4,1.11-2.45,2.43h4.69c.15-1.18-.68-2.27-1.87-2.42-.12-.02-.24-.02-.37-.02"/>
        </g>
        <g id="Group_111" data-name="Group 111">
          <path id="Path_70" data-name="Path 70" class="cls-2" d="M138.1,60.83c0-.67.05-1.34.15-2l-.03-.02c-.42,1.31-1.66,2.19-3.03,2.15-1.92,0-2.5-1.18-2.5-2.67v-5.75h.88v5.38c0,1.47.4,2.32,1.78,2.32,1.65,0,2.78-1.57,2.78-3.75v-3.95h.88v8.29h-.92Z"/>
        </g>
        <g id="Group_112" data-name="Group 112">
          <path id="Path_71" data-name="Path 71" class="cls-2" d="M150.74,60.83h-1.08l-2.08-6.05c-.17-.48-.32-.98-.45-1.47h-.02c-.18.7-.4,1.38-.62,2.08l-1.72,5.43h-1.13l-2.58-8.29h1.02l1.63,5.67c.2.72.42,1.4.53,1.85h.02c.15-.57.35-1.23.55-1.87l1.82-5.65h1.15l1.85,5.65c.35,1.08.47,1.45.58,1.88h.02c.15-.55.32-1.02.57-1.87l1.72-5.67h.98l-2.75,8.29Z"/>
        </g>
        <g id="Group_113" data-name="Group 113">
          <path id="Path_72" data-name="Path 72" class="cls-2" d="M161.31,56.26h-5.7c-.12,2.8.95,3.92,2.93,3.92.8,0,1.6-.16,2.33-.48l.2.77c-.87.34-1.8.51-2.73.5-2.4,0-3.68-1.35-3.68-4.25,0-2.47,1.32-4.3,3.53-4.3,1.63-.1,3.04,1.14,3.14,2.78.01.17,0,.34-.01.51,0,.1,0,.28-.02.57M158.12,53.13c-1.33.04-2.4,1.11-2.45,2.43h4.69c.15-1.18-.68-2.27-1.87-2.42-.12-.02-.24-.02-.37-.02"/>
        </g>
        <g id="Group_114" data-name="Group 114">
          <path id="Path_73" data-name="Path 73" class="cls-2" d="M172.51,60.83c0-.66.05-1.33.17-1.98l-.03-.02c-.41,1.27-1.6,2.13-2.93,2.13-2.07,0-3.07-1.48-3.07-3.92,0-3.02,1.68-4.58,4.18-4.58.58,0,1.16.04,1.73.1v-3.9h.88v12.17h-.93ZM172.56,53.38c-.6-.14-1.22-.22-1.83-.22-1.92,0-3.15,1.13-3.15,3.82,0,2.02.7,3.27,2.23,3.27,1.88,0,2.75-2.2,2.75-3.7v-3.17Z"/>
        </g>
        <g id="Group_115" data-name="Group 115">
          <path id="Path_74" data-name="Path 74" class="cls-2" d="M182.56,56.26h-5.7c-.12,2.8.95,3.92,2.93,3.92.8,0,1.6-.16,2.33-.48l.2.77c-.87.34-1.8.51-2.73.5-2.4,0-3.68-1.35-3.68-4.25,0-2.47,1.32-4.3,3.53-4.3,1.63-.1,3.04,1.14,3.14,2.78.01.17,0,.34-.01.51,0,.1,0,.28-.02.57M179.37,53.13c-1.33.04-2.4,1.11-2.45,2.43h4.69c.15-1.18-.68-2.27-1.87-2.42-.12-.02-.24-.02-.37-.02"/>
        </g>
        <g id="Group_116" data-name="Group 116">
          <path id="Path_75" data-name="Path 75" class="cls-2" d="M189.53,60.83c-.01-.63.02-1.26.1-1.88l-.03-.02c-.46,1.25-1.66,2.06-2.98,2.04-1.14.09-2.14-.76-2.23-1.9,0-.07,0-.15,0-.22,0-1.6,1.73-2.8,5.15-2.8v-.47c0-1.63-.48-2.43-2.02-2.43-.86.03-1.71.25-2.48.63l-.23-.75c.9-.4,1.87-.61,2.85-.62,2.08,0,2.77,1.15,2.77,2.88v2.9c0,.88.02,1.87.03,2.63h-.92ZM189.53,56.76c-3.28,0-4.23.95-4.23,1.92-.05.8.57,1.49,1.37,1.54.05,0,.1,0,.15,0,1.63,0,2.72-1.65,2.72-3.25v-.2Z"/>
        </g>
      </g>
    </g>
    <path id="Path_77" data-name="Path 77" class="cls-2" d="M193.76,60.83h.88v-12.17h-.88v12.17Z"/>
    <g class="cls-4">
      <g id="Group_137" data-name="Group 137">
        <g id="Group_118" data-name="Group 118">
          <path id="Path_78" data-name="Path 78" class="cls-2" d="M203.76,56.26h-5.7c-.12,2.8.95,3.92,2.93,3.92.8,0,1.6-.16,2.33-.48l.2.77c-.87.34-1.8.51-2.73.5-2.4,0-3.68-1.35-3.68-4.25,0-2.47,1.32-4.3,3.53-4.3,1.63-.1,3.04,1.14,3.14,2.78.01.17,0,.34-.01.51,0,.1,0,.28-.02.57M200.58,53.13c-1.33.04-2.4,1.11-2.45,2.43h4.69c.15-1.18-.68-2.27-1.87-2.42-.12-.02-.24-.02-.37-.02"/>
        </g>
        <g id="Group_119" data-name="Group 119">
          <path id="Path_79" data-name="Path 79" class="cls-2" d="M210.08,53.3c-1.95-.3-2.87,1.27-2.87,4.25v3.28h-.88v-8.28h.92c0,.76-.08,1.51-.22,2.25l.03.02c.18-1.49,1.53-2.56,3.02-2.39,0,0,.02,0,.03,0l-.03.87Z"/>
        </g>
        <g id="Group_120" data-name="Group 120">
          <path id="Path_80" data-name="Path 80" class="cls-3" d="M97.89,39.31h-3.06l-9.01-24.61h3.14l5.76,16.37c.55,1.5,1.2,3.43,1.68,5.14h.07c.47-1.68,1.13-3.57,1.79-5.33l5.98-16.19h2.88l-9.23,24.61Z"/>
        </g>
        <g id="Group_121" data-name="Group 121">
          <path id="Path_81" data-name="Path 81" class="cls-3" d="M118.06,39.3c-.04-1.28.02-2.56.18-3.83h-.07c-1.03,2.57-3.54,4.22-6.31,4.16-2.55.18-4.77-1.74-4.95-4.29-.01-.17-.01-.35,0-.52,0-3.72,3.9-6.16,11.05-6.16v-.91c0-3.17-1.02-4.7-4.09-4.7-1.89.06-3.74.52-5.43,1.34l-.58-2.22c2.04-.84,4.22-1.29,6.42-1.31,4.85,0,6.42,2.48,6.42,6.34v6.67c0,1.79,0,3.83.07,5.43h-2.7ZM117.95,30.66c-6.46,0-8.32,1.79-8.32,3.76-.08,1.57,1.13,2.91,2.71,2.99.09,0,.19,0,.28,0,3.17,0,5.32-3.17,5.32-6.31v-.44Z"/>
        </g>
        <g id="Group_122" data-name="Group 122">
          <path id="Path_82" data-name="Path 82" class="cls-3" d="M139.03,39.3v-11.71c0-2.84-.77-4.49-3.39-4.49-3.25,0-5.54,3.21-5.54,7.51v8.68h-2.73v-18.12h2.7c0,1.35-.1,2.71-.29,4.05l.07.03c.98-2.73,3.6-4.51,6.5-4.41,4.16,0,5.43,2.59,5.43,5.84v12.61h-2.74Z"/>
        </g>
        <g id="Group_123" data-name="Group 123">
          <path id="Path_83" data-name="Path 83" class="cls-3" d="M167.29,39.31c0-1.32.11-2.64.33-3.94l-.07-.04c-.96,2.61-3.46,4.33-6.24,4.3-4.48,0-6.67-3.28-6.67-8.57,0-6.46,3.65-10.1,9.3-10.1,1.06,0,2.12.07,3.36.18v-8.46h2.7v26.62h-2.7ZM167.29,23.55c-1.17-.28-2.37-.43-3.57-.44-3.72,0-6.2,2.26-6.2,7.73,0,4.08,1.39,6.53,4.38,6.53,3.61,0,5.4-4.23,5.4-7.44v-6.38Z"/>
        </g>
        <g id="Group_124" data-name="Group 124">
          <path id="Path_84" data-name="Path 84" class="cls-3" d="M189.9,29.82h-12.11c-.18,5.32,1.93,7.51,6.02,7.51,1.77,0,3.52-.36,5.14-1.06l.47,2.23c-1.97.75-4.06,1.13-6.16,1.13-5.4,0-8.31-2.95-8.31-9.3,0-5.4,2.95-9.48,7.99-9.48s7.04,3.39,7.04,7.33c0,.55-.02,1.1-.07,1.64M182.75,22.97c-2.55,0-4.38,1.9-4.81,4.85h9.19c.07-2.92-1.61-4.85-4.38-4.85"/>
        </g>
        <g id="Group_125" data-name="Group 125">
          <path id="Path_85" data-name="Path 85" class="cls-3" d="M206.75,39.3v-11.71c0-2.84-.77-4.49-3.39-4.49-3.25,0-5.54,3.21-5.54,7.51v8.68h-2.73v-18.12h2.7c0,1.35-.1,2.71-.29,4.05l.07.03c.98-2.73,3.6-4.51,6.5-4.41,4.16,0,5.43,2.59,5.43,5.84v12.61h-2.74Z"/>
        </g>
        <g id="Group_126" data-name="Group 126">
          <path id="Path_86" data-name="Path 86" class="cls-3" d="M233.15,39.63c-7.62,0-9.08-4.27-9.08-8.5V14.69h2.81v16.19c0,3.54,1.17,6.45,6.49,6.45,4.52,0,6.75-1.9,6.75-7.15v-15.5h2.74v15.28c0,6.31-3.32,9.66-9.7,9.66"/>
        </g>
        <g id="Group_127" data-name="Group 127">
          <path id="Path_87" data-name="Path 87" class="cls-3" d="M260.43,39.31c0-1.32.11-2.64.33-3.94l-.07-.04c-.96,2.61-3.46,4.33-6.24,4.3-4.48,0-6.67-3.28-6.67-8.57,0-6.46,3.65-10.1,9.3-10.1,1.06,0,2.12.07,3.36.18v-8.46h2.7v26.62h-2.7ZM260.43,23.55c-1.17-.28-2.37-.43-3.57-.44-3.72,0-6.2,2.26-6.2,7.73,0,4.08,1.39,6.53,4.38,6.53,3.61,0,5.4-4.23,5.4-7.44v-6.38Z"/>
        </g>
        <g id="Group_128" data-name="Group 128">
          <path id="Path_88" data-name="Path 88" class="cls-3" d="M283.04,29.82h-12.11c-.18,5.32,1.93,7.51,6.02,7.51,1.77,0,3.52-.36,5.14-1.06l.47,2.23c-1.97.75-4.06,1.13-6.16,1.13-5.4,0-8.31-2.95-8.31-9.3,0-5.4,2.95-9.48,7.99-9.48s7.04,3.39,7.04,7.33c0,.55-.02,1.1-.07,1.64M275.9,22.97c-2.55,0-4.38,1.9-4.81,4.85h9.19c.07-2.92-1.61-4.85-4.38-4.85"/>
        </g>
        <g id="Group_129" data-name="Group 129">
          <path id="Path_89" data-name="Path 89" class="cls-3" d="M299.89,39.3v-11.71c0-2.84-.77-4.49-3.39-4.49-3.25,0-5.54,3.21-5.54,7.51v8.68h-2.73v-18.12h2.7c0,1.35-.1,2.71-.29,4.05l.07.03c.98-2.73,3.6-4.51,6.5-4.41,4.16,0,5.43,2.59,5.43,5.84v12.61h-2.74Z"/>
        </g>
        <g id="Group_130" data-name="Group 130">
          <path id="Path_90" data-name="Path 90" class="cls-3" d="M320.93,39.31v-11.71c0-2.84-.77-4.48-3.39-4.48-3.25,0-5.54,3.21-5.54,7.51v8.68h-2.73V12.69h2.73v8.9c.02,1.21-.07,2.42-.29,3.61l.07.04c.98-2.7,3.58-4.47,6.45-4.38,4.16,0,5.43,2.59,5.43,5.84v12.62h-2.74Z"/>
        </g>
        <g id="Group_131" data-name="Group 131">
          <path id="Path_91" data-name="Path 91" class="cls-3" d="M336.51,39.63c-4.85,0-7.99-2.95-7.99-9.3,0-5.18,3.21-9.48,8.64-9.48,4.41,0,8.02,2.44,8.02,9.08,0,5.4-3.32,9.7-8.68,9.7M336.91,23.11c-2.84,0-5.54,2.15-5.54,7s1.97,7.18,5.54,7.18c2.85,0,5.43-2.19,5.43-7.18,0-4.38-1.82-7-5.43-7"/>
        </g>
        <g id="Group_132" data-name="Group 132">
          <path id="Path_92" data-name="Path 92" class="cls-3" d="M361.78,39.31c0-1.35.11-2.71.3-4.05l-.08-.04c-.97,2.73-3.6,4.51-6.49,4.41-4.16,0-5.43-2.59-5.43-5.83v-12.62h2.74v11.71c0,2.84.76,4.49,3.39,4.49,3.25,0,5.54-3.21,5.54-7.51v-8.68h2.73v18.13h-2.7Z"/>
        </g>
        <g id="Group_133" data-name="Group 133">
          <path id="Path_93" data-name="Path 93" class="cls-3" d="M376.51,39.6c-3.65,0-4.7-1.6-4.7-5.36v-10.9h-3.94v-2.15h3.94v-6.02l2.74-.77v6.78h5.32v2.15h-5.32v9.77c0,3.25.58,4.09,2.73,4.09.82,0,1.64-.09,2.44-.29l.33,2.3c-1.16.25-2.35.38-3.54.4"/>
        </g>
        <g id="Group_134" data-name="Group 134">
          <path id="Path_94" data-name="Path 94" class="cls-3" d="M35.43,51.55c-.75,0-1.36-.61-1.36-1.36s.61-1.36,1.36-1.36c12.73-.01,23.04-10.33,23.05-23.05-.01-12.73-10.33-23.04-23.05-23.05-.75,0-1.36-.61-1.36-1.36h0c0-.75.61-1.36,1.36-1.36h0c14.23.01,25.76,11.55,25.77,25.78-.01,14.23-11.55,25.76-25.77,25.77"/>
        </g>
        <g id="Group_135" data-name="Group 135">
          <path id="Path_95" data-name="Path 95" class="cls-3" d="M34.94,42.47c-9.14,0-16.55-7.42-16.56-16.55,0-.75.61-1.36,1.36-1.36.75,0,1.36.61,1.36,1.36,0,7.64,6.2,13.83,13.84,13.84,7.64,0,13.83-6.2,13.84-13.84,0-.75.61-1.36,1.36-1.36.75,0,1.36.61,1.36,1.36-.01,9.14-7.42,16.55-16.56,16.55"/>
        </g>
        <g id="Group_136" data-name="Group 136">
          <path id="Path_96" data-name="Path 96" class="cls-3" d="M35.34,61.24h-.33C15.51,61.04-.15,45.09,0,25.59c0-.75.61-1.35,1.36-1.35h.01c.75,0,1.36.62,1.35,1.37,0,0,0,0,0,0-.14,18,14.32,32.72,32.32,32.9,8.65.1,16.99-3.26,23.14-9.34,6.19-6.05,9.7-14.32,9.76-22.97,0-.75.6-1.35,1.35-1.35,0,0,.02,0,.02,0,.75,0,1.36.62,1.35,1.37h0c-.06,9.38-3.87,18.34-10.57,24.89-6.59,6.51-15.49,10.15-24.75,10.12"/>
        </g>
      </g>
    </g>
  </g>
</svg>