<?xml version="1.0" encoding="UTF-8"?>
<svg width="360px" height="360px" viewBox="0 0 360 360" version="1.1" xmlns="http://www.w3.org/2000/svg" xmlns:xlink="http://www.w3.org/1999/xlink">
    <title>favicon</title>
    <g id="icons" stroke="none" stroke-width="1" fill="none" fill-rule="evenodd">
        <g id="Group">
            <rect id="Rectangle-1" x="0" y="0" width="360" height="360"></rect>
            <g id="van-mossel-logo" transform="translate(27.000000, 157.000000)" fill="#1D1D1B">
                <path d="M3.2969182e-14,3.6280159 L10.5884797,3.6280159 L18.7247195,24.8699353 C19.8870394,27.8406952 20.8556394,30.6177351 21.6943194,33.071135 L21.8230794,33.071135 C22.6629193,30.6177351 23.6315193,27.8406952 24.7938393,24.8699353 L32.9289191,3.6280159 L43.5185587,3.6280159 L26.0199593,46.5004547 L17.4974395,46.5004547 L3.2969182e-14,3.6280159 Z M70.298434,15.6370316 L78.6272337,15.6370316 L79.5958337,18.7365515 C82.6953536,16.3469515 86.1173535,14.8633116 89.8618334,14.8633116 C94.7697933,14.8633116 100.128993,16.7993515 100.128993,26.2266712 L100.128993,46.1775107 L90.3791934,46.1775107 L90.3791934,29.1324712 C90.3791934,25.9679913 89.8618334,23.2570713 86.2472735,23.2570713 C84.2451136,23.2570713 81.8555136,24.0957513 80.0482337,25.5167513 L80.0482337,46.1775107 L70.298434,46.1775107 L70.298434,15.6370316 Z M122.147184,3.6280159 L131.057144,3.6280159 L141.710584,18.4783355 C143.002824,20.2867754 144.035224,21.8353754 145.003824,23.5150553 L145.132584,23.5150553 C145.907464,21.9652954 146.941024,20.1568554 148.232104,18.1546955 L157.788183,3.6280159 L166.763103,3.6280159 L166.763103,46.1779747 L156.884543,46.1779747 L156.884543,24.4836553 C156.884543,22.9338953 156.884543,21.1904154 156.948343,19.8981754 L156.884543,19.8981754 C156.497103,20.8029754 154.753624,23.3201753 154.043704,24.4186953 L147.134744,34.878415 L142.809104,34.878415 L134.931544,24.0300953 C134.026744,22.8039753 132.994344,21.5128954 132.090704,19.8981754 L131.960784,19.8981754 C132.025744,21.3191754 132.025744,22.9976953 132.025744,24.1600153 L132.025744,46.1779747 L122.147184,46.1779747 L122.147184,3.6280159 Z M193.218178,30.8109911 C193.218178,26.0979112 191.409738,22.5459914 187.084099,22.5459914 C182.758459,22.5459914 180.950019,26.0979112 180.950019,30.8109911 C180.950019,35.524071 182.758459,39.1409509 187.084099,39.1409509 C191.409738,39.1409509 193.218178,35.524071 193.218178,30.8109911 Z M171.007659,30.8109911 C171.007659,21.5135914 177.592979,14.8621516 187.084099,14.8621516 C196.576378,14.8621516 203.161698,21.5135914 203.161698,30.8109911 C203.161698,40.1083908 196.576378,46.8236307 187.084099,46.8236307 C177.592979,46.8236307 171.007659,40.1083908 171.007659,30.8109911 Z M208.329266,36.6223589 C210.976386,38.3646789 214.269626,39.3332789 217.110466,39.3332789 C219.886346,39.3332789 221.694786,38.8170789 221.694786,37.2684789 C221.694786,33.135399 207.295706,34.878879 207.295706,24.6117193 C207.295706,18.7363195 212.202506,14.8630796 219.758746,14.8630796 C223.438266,14.8630796 226.795305,15.4442396 229.572345,16.4116795 L229.572345,24.4841193 C226.666545,23.3206393 223.503226,22.3520394 220.146186,22.3520394 C217.756586,22.3520394 216.787986,22.9981593 216.787986,24.1604793 C216.787986,27.6474392 231.185905,26.1614792 231.185905,37.0086389 C231.185905,44.1762787 224.794306,46.8233987 218.015266,46.8233987 C212.719866,46.8233987 208.264306,45.4023987 205.358506,43.5951187 L208.329266,36.6223589 Z M237.106661,36.6223589 C239.753781,38.3646789 243.047021,39.3332789 245.886701,39.3332789 C248.663741,39.3332789 250.471021,38.8170789 250.471021,37.2684789 C250.471021,33.135399 236.073101,34.878879 236.073101,24.6117193 C236.073101,18.7363195 240.979901,14.8630796 248.536141,14.8630796 C252.214501,14.8630796 255.572701,15.4442396 258.348581,16.4116795 L258.348581,24.4841193 C255.443941,23.3206393 252.279461,22.3520394 248.922421,22.3520394 C246.533981,22.3520394 245.565381,22.9981593 245.565381,24.1604793 C245.565381,27.6474392 259.963301,26.1614792 259.963301,37.0086389 C259.963301,44.1762787 253.570541,46.8233987 246.792661,46.8233987 C241.497261,46.8233987 237.041701,45.4023987 234.135901,43.5951187 L237.106661,36.6223589 Z M283.252968,27.3887592 C283.188008,24.7416393 281.830808,22.0945194 278.281208,22.0945194 C275.051768,22.0945194 273.503168,24.6766793 273.503168,27.3887592 L283.252968,27.3887592 Z M273.631928,33.845319 C273.825648,37.5897989 277.053928,39.3332789 281.185848,39.3332789 C284.415288,39.3332789 286.804888,38.5595589 289.063408,37.2684789 L291.904248,43.8526387 C288.288528,46.0485187 284.415288,46.8233987 280.410968,46.8233987 C268.272728,46.8233987 263.882128,39.0757589 263.882128,31.2631591 C263.882128,22.0945194 268.853888,14.8630796 278.474928,14.8630796 C287.642408,14.8630796 293.001608,21.1897194 293.001608,31.5844791 L293.001608,33.845319 L273.631928,33.845319 Z M297.522591,46.1389987 L297.522591,0.463999987 L306.661071,0.463999987 L306.661071,46.1389987 L297.522591,46.1389987 Z M52.5194625,32.6835791 C50.9697025,32.7485391 49.7424226,33.0060591 48.9037426,33.522259 C48.0001026,34.103419 47.5477026,34.879459 47.5477026,36.170539 C47.5477026,38.3002989 49.0325026,39.3326989 51.3571425,39.3326989 C53.4869025,39.3326989 55.1016224,38.6877389 55.8115424,38.2353389 L55.8115424,32.5548191 L52.5194625,32.6835791 Z M55.8150224,44.3114187 C54.6434224,45.2695787 52.0021025,46.8228187 48.1938226,46.8228187 C42.1885028,46.8228187 37.7979029,42.6908988 37.7979029,36.8166589 C37.7979029,32.6835791 39.7351029,30.1652191 42.8984228,28.4866992 C45.0943027,27.3243792 47.8701826,26.7432192 50.9697025,26.6144592 L55.8115424,26.4207392 L55.8115424,26.0970992 C55.8115424,23.2574193 53.7455825,22.0950994 50.4535025,22.0950994 C47.8701826,22.0950994 44.9005827,22.8038593 42.7047028,23.9661793 L39.6701429,17.8332595 C43.2858628,16.0248195 47.4189426,14.8624996 52.2607825,14.8624996 C61.6881022,14.8624996 64.9755421,19.0593795 64.9755421,26.4845392 L64.9755421,40.1725388 C64.9755421,42.0447788 64.9546621,46.1940987 64.9546621,46.1940987 L55.8150224,46.1940987 L55.8150224,44.3114187 Z" id="Shape"></path>
            </g>
        </g>
    </g>
</svg>